<mxfile host="65bd71144e">
    <diagram id="vDkpHy24H6BLEEyWHWST" name="Page-1">
        <mxGraphModel dx="1338" dy="771" grid="1" gridSize="10" guides="1" tooltips="1" connect="1" arrows="1" fold="1" page="1" pageScale="1" pageWidth="850" pageHeight="1100" math="0" shadow="0">
            <root>
                <mxCell id="0"/>
                <mxCell id="1" parent="0"/>
                <mxCell id="81" value="" style="edgeStyle=none;html=1;fontSize=20;startArrow=classic;startFill=1;" parent="1" target="79" edge="1">
                    <mxGeometry relative="1" as="geometry">
                        <mxPoint x="510" y="250" as="sourcePoint"/>
                    </mxGeometry>
                </mxCell>
                <mxCell id="51" value="ESP32 CAM Platforma" style="rounded=1;whiteSpace=wrap;html=1;" parent="1" vertex="1">
                    <mxGeometry x="750" y="330" width="120" height="80" as="geometry"/>
                </mxCell>
                <mxCell id="53" value="GUI" style="rounded=1;whiteSpace=wrap;html=1;" parent="1" vertex="1">
                    <mxGeometry x="750" y="90" width="120" height="80" as="geometry"/>
                </mxCell>
                <mxCell id="55" value="Mando" style="rounded=1;whiteSpace=wrap;html=1;" parent="1" vertex="1">
                    <mxGeometry x="750" y="210" width="120" height="80" as="geometry"/>
                </mxCell>
                <mxCell id="59" value="&lt;font style=&quot;font-size: 15px&quot;&gt;MASTER&lt;/font&gt;" style="text;html=1;align=center;verticalAlign=middle;resizable=0;points=[];autosize=1;strokeColor=none;fillColor=none;" parent="1" vertex="1">
                    <mxGeometry x="410" y="150" width="80" height="20" as="geometry"/>
                </mxCell>
                <mxCell id="60" value="&lt;font style=&quot;font-size: 15px&quot;&gt;CLIENTE&lt;/font&gt;" style="text;html=1;align=center;verticalAlign=middle;resizable=0;points=[];autosize=1;strokeColor=none;fillColor=none;" parent="1" vertex="1">
                    <mxGeometry x="770" y="30" width="80" height="20" as="geometry"/>
                </mxCell>
                <mxCell id="61" value="&lt;font style=&quot;font-size: 20px&quot;&gt;&lt;b&gt;DATA - FLOW&lt;br&gt;&lt;/b&gt;&lt;/font&gt;" style="text;html=1;align=center;verticalAlign=middle;resizable=0;points=[];autosize=1;strokeColor=none;fillColor=none;" parent="1" vertex="1">
                    <mxGeometry x="475" y="30" width="140" height="20" as="geometry"/>
                </mxCell>
                <mxCell id="62" value="" style="endArrow=classic;startArrow=classic;html=1;fontSize=15;entryX=1;entryY=1;entryDx=0;entryDy=0;exitX=0;exitY=0.5;exitDx=0;exitDy=0;" parent="1" source="51" target="79" edge="1">
                    <mxGeometry width="50" height="50" relative="1" as="geometry">
                        <mxPoint x="530" y="430" as="sourcePoint"/>
                        <mxPoint x="580" y="380" as="targetPoint"/>
                    </mxGeometry>
                </mxCell>
                <mxCell id="68" value="GUI" style="rounded=1;whiteSpace=wrap;html=1;" parent="1" vertex="1">
                    <mxGeometry x="750" y="530" width="120" height="80" as="geometry"/>
                </mxCell>
                <mxCell id="69" value="Mando" style="rounded=1;whiteSpace=wrap;html=1;" parent="1" vertex="1">
                    <mxGeometry x="750" y="650" width="120" height="80" as="geometry"/>
                </mxCell>
                <mxCell id="72" value="&lt;font style=&quot;font-size: 20px&quot;&gt;&lt;b&gt;VIDEO - FLOW&lt;br&gt;&lt;/b&gt;&lt;/font&gt;" style="text;html=1;align=center;verticalAlign=middle;resizable=0;points=[];autosize=1;strokeColor=none;fillColor=none;" parent="1" vertex="1">
                    <mxGeometry x="455" y="470" width="150" height="20" as="geometry"/>
                </mxCell>
                <mxCell id="76" value="ESP32 CAM Platforma" style="rounded=1;whiteSpace=wrap;html=1;" parent="1" vertex="1">
                    <mxGeometry x="390" y="530" width="120" height="80" as="geometry"/>
                </mxCell>
                <mxCell id="77" value="ESP32 CAM&amp;nbsp;&lt;br&gt;Interrior" style="rounded=1;whiteSpace=wrap;html=1;" parent="1" vertex="1">
                    <mxGeometry x="390" y="650" width="120" height="80" as="geometry"/>
                </mxCell>
                <mxCell id="78" value="" style="endArrow=classic;startArrow=classic;html=1;fontSize=20;exitX=1;exitY=0.5;exitDx=0;exitDy=0;" parent="1" source="76" edge="1">
                    <mxGeometry width="50" height="50" relative="1" as="geometry">
                        <mxPoint x="560" y="810" as="sourcePoint"/>
                        <mxPoint x="550" y="570" as="targetPoint"/>
                    </mxGeometry>
                </mxCell>
                <mxCell id="79" value="Webserver&lt;br&gt;IP ADRESS" style="rounded=1;whiteSpace=wrap;html=1;" parent="1" vertex="1">
                    <mxGeometry x="550" y="210" width="120" height="80" as="geometry"/>
                </mxCell>
                <mxCell id="82" value="" style="endArrow=classic;startArrow=classic;html=1;fontSize=20;entryX=0;entryY=0.5;entryDx=0;entryDy=0;exitX=1;exitY=0.5;exitDx=0;exitDy=0;" parent="1" source="79" target="55" edge="1">
                    <mxGeometry width="50" height="50" relative="1" as="geometry">
                        <mxPoint x="540" y="430" as="sourcePoint"/>
                        <mxPoint x="590" y="380" as="targetPoint"/>
                    </mxGeometry>
                </mxCell>
                <mxCell id="83" value="" style="endArrow=classic;startArrow=classic;html=1;fontSize=20;entryX=0;entryY=0.5;entryDx=0;entryDy=0;exitX=1;exitY=0;exitDx=0;exitDy=0;" parent="1" source="79" target="53" edge="1">
                    <mxGeometry width="50" height="50" relative="1" as="geometry">
                        <mxPoint x="680" y="260" as="sourcePoint"/>
                        <mxPoint x="760" y="260" as="targetPoint"/>
                    </mxGeometry>
                </mxCell>
                <mxCell id="85" value="Webserver&lt;br&gt;IP ADRESS" style="rounded=1;whiteSpace=wrap;html=1;" parent="1" vertex="1">
                    <mxGeometry x="550" y="530" width="120" height="80" as="geometry"/>
                </mxCell>
                <mxCell id="87" value="Webserver&lt;br&gt;IP ADRESS" style="rounded=1;whiteSpace=wrap;html=1;" parent="1" vertex="1">
                    <mxGeometry x="550" y="650" width="120" height="80" as="geometry"/>
                </mxCell>
                <mxCell id="88" value="" style="endArrow=classic;startArrow=classic;html=1;fontSize=20;exitX=1;exitY=0.5;exitDx=0;exitDy=0;entryX=0;entryY=0.5;entryDx=0;entryDy=0;" parent="1" source="77" target="87" edge="1">
                    <mxGeometry width="50" height="50" relative="1" as="geometry">
                        <mxPoint x="520" y="580" as="sourcePoint"/>
                        <mxPoint x="560" y="580" as="targetPoint"/>
                    </mxGeometry>
                </mxCell>
                <mxCell id="92" value="" style="endArrow=classic;html=1;fontSize=20;entryX=0;entryY=0.5;entryDx=0;entryDy=0;exitX=1;exitY=0.5;exitDx=0;exitDy=0;" parent="1" source="85" target="68" edge="1">
                    <mxGeometry width="50" height="50" relative="1" as="geometry">
                        <mxPoint x="650" y="450" as="sourcePoint"/>
                        <mxPoint x="700" y="400" as="targetPoint"/>
                    </mxGeometry>
                </mxCell>
                <mxCell id="93" value="" style="endArrow=classic;html=1;fontSize=20;entryX=0;entryY=0;entryDx=0;entryDy=0;exitX=1;exitY=1;exitDx=0;exitDy=0;" parent="1" source="85" target="69" edge="1">
                    <mxGeometry width="50" height="50" relative="1" as="geometry">
                        <mxPoint x="680" y="580" as="sourcePoint"/>
                        <mxPoint x="760" y="580" as="targetPoint"/>
                    </mxGeometry>
                </mxCell>
                <mxCell id="94" value="" style="endArrow=classic;html=1;fontSize=20;entryX=0;entryY=1;entryDx=0;entryDy=0;exitX=1;exitY=0;exitDx=0;exitDy=0;" parent="1" source="87" target="68" edge="1">
                    <mxGeometry width="50" height="50" relative="1" as="geometry">
                        <mxPoint x="680" y="620" as="sourcePoint"/>
                        <mxPoint x="760" y="660" as="targetPoint"/>
                    </mxGeometry>
                </mxCell>
                <mxCell id="95" value="" style="endArrow=classic;html=1;fontSize=20;entryX=0;entryY=0.5;entryDx=0;entryDy=0;exitX=1;exitY=0.5;exitDx=0;exitDy=0;" parent="1" source="87" target="69" edge="1">
                    <mxGeometry width="50" height="50" relative="1" as="geometry">
                        <mxPoint x="680" y="660" as="sourcePoint"/>
                        <mxPoint x="760" y="620" as="targetPoint"/>
                    </mxGeometry>
                </mxCell>
                <mxCell id="96" value="Prosses 1&lt;br&gt;Communicacion" style="rounded=1;whiteSpace=wrap;html=1;" parent="1" vertex="1">
                    <mxGeometry x="1250" y="770" width="160" height="40" as="geometry"/>
                </mxCell>
                <mxCell id="97" value="Prosses 2&lt;br&gt;Controll" style="rounded=1;whiteSpace=wrap;html=1;" parent="1" vertex="1">
                    <mxGeometry x="1690" y="770" width="160" height="40" as="geometry"/>
                </mxCell>
                <mxCell id="107" value="" style="edgeStyle=none;html=1;" parent="1" source="99" target="105" edge="1">
                    <mxGeometry relative="1" as="geometry"/>
                </mxCell>
                <mxCell id="99" value="Init&lt;br&gt;make_Webserver" style="rounded=1;whiteSpace=wrap;html=1;" parent="1" vertex="1">
                    <mxGeometry x="1250" y="850" width="160" height="40" as="geometry"/>
                </mxCell>
                <mxCell id="159" value="" style="edgeStyle=none;html=1;" parent="1" source="100" target="158" edge="1">
                    <mxGeometry relative="1" as="geometry"/>
                </mxCell>
                <mxCell id="100" value="check_new_data-_webserver" style="rounded=1;whiteSpace=wrap;html=1;" parent="1" vertex="1">
                    <mxGeometry x="1250" y="1010" width="160" height="40" as="geometry"/>
                </mxCell>
                <mxCell id="157" value="" style="edgeStyle=none;html=1;" parent="1" source="102" edge="1">
                    <mxGeometry relative="1" as="geometry">
                        <mxPoint x="1330" y="1110" as="targetPoint"/>
                    </mxGeometry>
                </mxCell>
                <mxCell id="102" value="set_new_data_BBB" style="rounded=1;whiteSpace=wrap;html=1;" parent="1" vertex="1">
                    <mxGeometry x="1450" y="1090" width="160" height="40" as="geometry"/>
                </mxCell>
                <mxCell id="104" value="&lt;font style=&quot;font-size: 20px&quot;&gt;&lt;b&gt;Beagle Bone Black&lt;br&gt;&lt;/b&gt;&lt;/font&gt;" style="text;html=1;align=center;verticalAlign=middle;resizable=0;points=[];autosize=1;strokeColor=none;fillColor=none;" parent="1" vertex="1">
                    <mxGeometry x="270" y="770" width="200" height="20" as="geometry"/>
                </mxCell>
                <mxCell id="108" value="" style="edgeStyle=none;html=1;" parent="1" source="105" target="100" edge="1">
                    <mxGeometry relative="1" as="geometry"/>
                </mxCell>
                <mxCell id="105" value="check_new_connection" style="rounded=1;whiteSpace=wrap;html=1;" parent="1" vertex="1">
                    <mxGeometry x="1250" y="930" width="160" height="40" as="geometry"/>
                </mxCell>
                <mxCell id="113" value="" style="endArrow=classic;html=1;exitX=0.5;exitY=1;exitDx=0;exitDy=0;entryX=0;entryY=0.5;entryDx=0;entryDy=0;" parent="1" source="100" target="105" edge="1">
                    <mxGeometry width="50" height="50" relative="1" as="geometry">
                        <mxPoint x="1330" y="1130" as="sourcePoint"/>
                        <mxPoint x="1170" y="970" as="targetPoint"/>
                        <Array as="points">
                            <mxPoint x="1330" y="1110"/>
                            <mxPoint x="1240" y="1110"/>
                            <mxPoint x="1170" y="1110"/>
                            <mxPoint x="1170" y="950"/>
                        </Array>
                    </mxGeometry>
                </mxCell>
                <mxCell id="116" value="" style="edgeStyle=none;html=1;" parent="1" source="114" target="115" edge="1">
                    <mxGeometry relative="1" as="geometry"/>
                </mxCell>
                <mxCell id="114" value="Init&lt;br&gt;Hardware" style="rounded=1;whiteSpace=wrap;html=1;" parent="1" vertex="1">
                    <mxGeometry x="1690" y="850" width="160" height="40" as="geometry"/>
                </mxCell>
                <mxCell id="131" value="" style="edgeStyle=none;html=1;" parent="1" source="115" target="130" edge="1">
                    <mxGeometry relative="1" as="geometry"/>
                </mxCell>
                <mxCell id="115" value="check_new_data_BBB" style="rounded=1;whiteSpace=wrap;html=1;" parent="1" vertex="1">
                    <mxGeometry x="1690" y="930" width="160" height="40" as="geometry"/>
                </mxCell>
                <mxCell id="120" value="" style="edgeStyle=none;html=1;" parent="1" source="117" target="119" edge="1">
                    <mxGeometry relative="1" as="geometry"/>
                </mxCell>
                <mxCell id="122" value="" style="edgeStyle=none;html=1;" parent="1" source="117" target="121" edge="1">
                    <mxGeometry relative="1" as="geometry"/>
                </mxCell>
                <mxCell id="117" value="Movment.calculate_data_manejar" style="rounded=1;whiteSpace=wrap;html=1;" parent="1" vertex="1">
                    <mxGeometry x="2090" y="930" width="200" height="40" as="geometry"/>
                </mxCell>
                <mxCell id="119" value="Motor.set_speed" style="rounded=1;whiteSpace=wrap;html=1;" parent="1" vertex="1">
                    <mxGeometry x="2330" y="930" width="160" height="40" as="geometry"/>
                </mxCell>
                <mxCell id="124" value="" style="edgeStyle=none;html=1;" parent="1" source="121" target="123" edge="1">
                    <mxGeometry relative="1" as="geometry"/>
                </mxCell>
                <mxCell id="126" value="" style="edgeStyle=none;html=1;" parent="1" source="121" target="125" edge="1">
                    <mxGeometry relative="1" as="geometry"/>
                </mxCell>
                <mxCell id="121" value="Movment.calculate_data_arriba" style="rounded=1;whiteSpace=wrap;html=1;" parent="1" vertex="1">
                    <mxGeometry x="2090" y="1010" width="200" height="40" as="geometry"/>
                </mxCell>
                <mxCell id="123" value="Motor.set_speed" style="rounded=1;whiteSpace=wrap;html=1;" parent="1" vertex="1">
                    <mxGeometry x="2330" y="1010" width="160" height="40" as="geometry"/>
                </mxCell>
                <mxCell id="128" value="" style="edgeStyle=none;html=1;" parent="1" source="125" target="127" edge="1">
                    <mxGeometry relative="1" as="geometry"/>
                </mxCell>
                <mxCell id="125" value="OtrosActores.process_data" style="rounded=1;whiteSpace=wrap;html=1;" parent="1" vertex="1">
                    <mxGeometry x="2090" y="1090" width="200" height="40" as="geometry"/>
                </mxCell>
                <mxCell id="127" value="Actor.do_stuff" style="rounded=1;whiteSpace=wrap;html=1;" parent="1" vertex="1">
                    <mxGeometry x="2330" y="1090" width="160" height="40" as="geometry"/>
                </mxCell>
                <mxCell id="129" value="" style="endArrow=classic;html=1;exitX=0.5;exitY=1;exitDx=0;exitDy=0;entryX=0;entryY=0.5;entryDx=0;entryDy=0;" parent="1" source="115" target="115" edge="1">
                    <mxGeometry width="50" height="50" relative="1" as="geometry">
                        <mxPoint x="1770" y="1320" as="sourcePoint"/>
                        <mxPoint x="1650" y="870" as="targetPoint"/>
                        <Array as="points">
                            <mxPoint x="1770" y="1030"/>
                            <mxPoint x="1650" y="1030"/>
                            <mxPoint x="1650" y="950"/>
                        </Array>
                    </mxGeometry>
                </mxCell>
                <mxCell id="132" value="" style="edgeStyle=none;html=1;" parent="1" source="130" target="117" edge="1">
                    <mxGeometry relative="1" as="geometry"/>
                </mxCell>
                <mxCell id="130" value="get_new_data_BBB" style="rounded=1;whiteSpace=wrap;html=1;" parent="1" vertex="1">
                    <mxGeometry x="1890" y="930" width="160" height="40" as="geometry"/>
                </mxCell>
                <mxCell id="133" value="&lt;font style=&quot;font-size: 20px&quot;&gt;&lt;b&gt;GUI&lt;br&gt;&lt;/b&gt;&lt;/font&gt;" style="text;html=1;align=center;verticalAlign=middle;resizable=0;points=[];autosize=1;strokeColor=none;fillColor=none;" parent="1" vertex="1">
                    <mxGeometry x="265" y="2500" width="50" height="20" as="geometry"/>
                </mxCell>
                <mxCell id="134" value="Prosses 1&lt;br&gt;Communicacion" style="rounded=1;whiteSpace=wrap;html=1;" parent="1" vertex="1">
                    <mxGeometry x="1280" y="2530" width="160" height="40" as="geometry"/>
                </mxCell>
                <mxCell id="135" value="Prosses 2&lt;br&gt;GUI" style="rounded=1;whiteSpace=wrap;html=1;" parent="1" vertex="1">
                    <mxGeometry x="1720" y="2530" width="160" height="40" as="geometry"/>
                </mxCell>
                <mxCell id="154" value="" style="edgeStyle=none;html=1;" parent="1" source="138" target="139" edge="1">
                    <mxGeometry relative="1" as="geometry"/>
                </mxCell>
                <mxCell id="138" value="Init&lt;br&gt;Connect_to_webserver" style="rounded=1;whiteSpace=wrap;html=1;" parent="1" vertex="1">
                    <mxGeometry x="1280" y="2610" width="160" height="40" as="geometry"/>
                </mxCell>
                <mxCell id="232" value="" style="edgeStyle=none;html=1;" parent="1" source="139" target="151" edge="1">
                    <mxGeometry relative="1" as="geometry"/>
                </mxCell>
                <mxCell id="139" value="check_data_webserver" style="rounded=1;whiteSpace=wrap;html=1;" parent="1" vertex="1">
                    <mxGeometry x="1280" y="2690" width="160" height="40" as="geometry"/>
                </mxCell>
                <mxCell id="141" value="Init&lt;br&gt;set_data_GUI" style="rounded=1;whiteSpace=wrap;html=1;" parent="1" vertex="1">
                    <mxGeometry x="1720" y="2610" width="160" height="40" as="geometry"/>
                </mxCell>
                <mxCell id="145" value="" style="edgeStyle=none;html=1;" parent="1" target="144" edge="1">
                    <mxGeometry relative="1" as="geometry">
                        <mxPoint x="1800" y="2650" as="sourcePoint"/>
                    </mxGeometry>
                </mxCell>
                <mxCell id="234" value="" style="edgeStyle=none;html=1;" parent="1" source="144" target="155" edge="1">
                    <mxGeometry relative="1" as="geometry"/>
                </mxCell>
                <mxCell id="144" value="check_buton_pressed" style="rounded=1;whiteSpace=wrap;html=1;" parent="1" vertex="1">
                    <mxGeometry x="1720" y="2690" width="160" height="40" as="geometry"/>
                </mxCell>
                <mxCell id="146" value="sent_data" style="rounded=1;whiteSpace=wrap;html=1;" parent="1" vertex="1">
                    <mxGeometry x="2120" y="2690" width="160" height="40" as="geometry"/>
                </mxCell>
                <mxCell id="165" value="" style="edgeStyle=none;html=1;" parent="1" source="151" target="162" edge="1">
                    <mxGeometry relative="1" as="geometry"/>
                </mxCell>
                <mxCell id="151" value="get_data_webserver" style="rounded=1;whiteSpace=wrap;html=1;" parent="1" vertex="1">
                    <mxGeometry x="1480" y="2690" width="160" height="40" as="geometry"/>
                </mxCell>
                <mxCell id="156" value="" style="edgeStyle=none;html=1;" parent="1" source="155" target="146" edge="1">
                    <mxGeometry relative="1" as="geometry"/>
                </mxCell>
                <mxCell id="155" value="set_new_data_GUI" style="rounded=1;whiteSpace=wrap;html=1;" parent="1" vertex="1">
                    <mxGeometry x="1920" y="2690" width="160" height="40" as="geometry"/>
                </mxCell>
                <mxCell id="160" value="" style="edgeStyle=none;html=1;" parent="1" source="158" target="102" edge="1">
                    <mxGeometry relative="1" as="geometry"/>
                </mxCell>
                <mxCell id="158" value="get_data_webserver" style="rounded=1;whiteSpace=wrap;html=1;" parent="1" vertex="1">
                    <mxGeometry x="1450" y="1010" width="160" height="40" as="geometry"/>
                </mxCell>
                <mxCell id="163" value="" style="edgeStyle=none;html=1;" parent="1" source="162" edge="1">
                    <mxGeometry relative="1" as="geometry">
                        <mxPoint x="1360" y="2790" as="targetPoint"/>
                    </mxGeometry>
                </mxCell>
                <mxCell id="162" value="set_new_data_GUI" style="rounded=1;whiteSpace=wrap;html=1;" parent="1" vertex="1">
                    <mxGeometry x="1480" y="2770" width="160" height="40" as="geometry"/>
                </mxCell>
                <mxCell id="164" value="" style="endArrow=classic;html=1;exitX=0.5;exitY=1;exitDx=0;exitDy=0;entryX=0;entryY=0.5;entryDx=0;entryDy=0;" parent="1" source="139" target="139" edge="1">
                    <mxGeometry width="50" height="50" relative="1" as="geometry">
                        <mxPoint x="1360" y="2810" as="sourcePoint"/>
                        <mxPoint x="1240" y="2690" as="targetPoint"/>
                        <Array as="points">
                            <mxPoint x="1360" y="2790"/>
                            <mxPoint x="1240" y="2790"/>
                            <mxPoint x="1240" y="2710"/>
                        </Array>
                    </mxGeometry>
                </mxCell>
                <mxCell id="166" value="" style="endArrow=classic;html=1;exitX=0.5;exitY=1;exitDx=0;exitDy=0;entryX=0;entryY=0.5;entryDx=0;entryDy=0;" parent="1" target="144" edge="1">
                    <mxGeometry width="50" height="50" relative="1" as="geometry">
                        <mxPoint x="1800" y="2730" as="sourcePoint"/>
                        <mxPoint x="1720" y="2630" as="targetPoint"/>
                        <Array as="points">
                            <mxPoint x="1800" y="2770"/>
                            <mxPoint x="1680" y="2770"/>
                            <mxPoint x="1680" y="2710"/>
                        </Array>
                    </mxGeometry>
                </mxCell>
                <mxCell id="167" value="&lt;font style=&quot;font-size: 20px&quot;&gt;&lt;b&gt;ESP32 - Cam - platform&lt;br&gt;&lt;/b&gt;&lt;/font&gt;" style="text;html=1;align=center;verticalAlign=middle;resizable=0;points=[];autosize=1;strokeColor=none;fillColor=none;" parent="1" vertex="1">
                    <mxGeometry x="190" y="3380" width="240" height="20" as="geometry"/>
                </mxCell>
                <mxCell id="168" value="Prosses 1&lt;br&gt;Communicacion" style="rounded=1;whiteSpace=wrap;html=1;" parent="1" vertex="1">
                    <mxGeometry x="1190" y="3530" width="160" height="40" as="geometry"/>
                </mxCell>
                <mxCell id="169" value="Prosses 3&lt;br&gt;Controll" style="rounded=1;whiteSpace=wrap;html=1;" parent="1" vertex="1">
                    <mxGeometry x="1870" y="3530" width="160" height="40" as="geometry"/>
                </mxCell>
                <mxCell id="170" value="" style="edgeStyle=none;html=1;" parent="1" source="171" target="173" edge="1">
                    <mxGeometry relative="1" as="geometry"/>
                </mxCell>
                <mxCell id="171" value="Init&lt;br&gt;make_websocket" style="rounded=1;whiteSpace=wrap;html=1;" parent="1" vertex="1">
                    <mxGeometry x="1630" y="3610" width="160" height="40" as="geometry"/>
                </mxCell>
                <mxCell id="190" value="" style="edgeStyle=none;html=1;" parent="1" source="173" target="183" edge="1">
                    <mxGeometry relative="1" as="geometry"/>
                </mxCell>
                <mxCell id="173" value="take_video" style="rounded=1;whiteSpace=wrap;html=1;" parent="1" vertex="1">
                    <mxGeometry x="1630" y="3690" width="160" height="40" as="geometry"/>
                </mxCell>
                <mxCell id="174" value="Init&lt;br&gt;connect_webserver" style="rounded=1;whiteSpace=wrap;html=1;" parent="1" vertex="1">
                    <mxGeometry x="1870" y="3610" width="160" height="40" as="geometry"/>
                </mxCell>
                <mxCell id="175" value="" style="edgeStyle=none;html=1;" parent="1" target="177" edge="1">
                    <mxGeometry relative="1" as="geometry">
                        <mxPoint x="1950" y="3650" as="sourcePoint"/>
                    </mxGeometry>
                </mxCell>
                <mxCell id="235" value="" style="edgeStyle=none;html=1;" parent="1" source="177" target="182" edge="1">
                    <mxGeometry relative="1" as="geometry"/>
                </mxCell>
                <mxCell id="177" value="Check_new_data_esp32" style="rounded=1;whiteSpace=wrap;html=1;" parent="1" vertex="1">
                    <mxGeometry x="1870" y="3690" width="160" height="40" as="geometry"/>
                </mxCell>
                <mxCell id="178" value="Actors.do_stuff" style="rounded=1;whiteSpace=wrap;html=1;" parent="1" vertex="1">
                    <mxGeometry x="2270" y="3690" width="160" height="40" as="geometry"/>
                </mxCell>
                <mxCell id="181" value="" style="edgeStyle=none;html=1;" parent="1" source="182" edge="1">
                    <mxGeometry relative="1" as="geometry">
                        <mxPoint x="2270" y="3710" as="targetPoint"/>
                    </mxGeometry>
                </mxCell>
                <mxCell id="182" value="get_new_data_ESP32" style="rounded=1;whiteSpace=wrap;html=1;" parent="1" vertex="1">
                    <mxGeometry x="2070" y="3690" width="160" height="40" as="geometry"/>
                </mxCell>
                <mxCell id="183" value="stream_to_webhost" style="rounded=1;whiteSpace=wrap;html=1;" parent="1" vertex="1">
                    <mxGeometry x="1630" y="3770" width="160" height="40" as="geometry"/>
                </mxCell>
                <mxCell id="186" value="" style="endArrow=classic;html=1;exitX=0.5;exitY=1;exitDx=0;exitDy=0;entryX=0;entryY=0.5;entryDx=0;entryDy=0;" parent="1" source="183" target="173" edge="1">
                    <mxGeometry width="50" height="50" relative="1" as="geometry">
                        <mxPoint x="1600" y="3910" as="sourcePoint"/>
                        <mxPoint x="1590" y="3690" as="targetPoint"/>
                        <Array as="points">
                            <mxPoint x="1710" y="3850"/>
                            <mxPoint x="1590" y="3850"/>
                            <mxPoint x="1590" y="3710"/>
                        </Array>
                    </mxGeometry>
                </mxCell>
                <mxCell id="187" value="" style="endArrow=classic;html=1;exitX=0.5;exitY=1;exitDx=0;exitDy=0;entryX=0;entryY=0.5;entryDx=0;entryDy=0;" parent="1" target="177" edge="1">
                    <mxGeometry width="50" height="50" relative="1" as="geometry">
                        <mxPoint x="1950" y="3730" as="sourcePoint"/>
                        <mxPoint x="1870" y="3630" as="targetPoint"/>
                        <Array as="points">
                            <mxPoint x="1950" y="3770"/>
                            <mxPoint x="1830" y="3770"/>
                            <mxPoint x="1830" y="3710"/>
                        </Array>
                    </mxGeometry>
                </mxCell>
                <mxCell id="212" value="Prosses 2&lt;br&gt;Video" style="rounded=1;whiteSpace=wrap;html=1;" parent="1" vertex="1">
                    <mxGeometry x="1630" y="3530" width="160" height="40" as="geometry"/>
                </mxCell>
                <mxCell id="213" value="" style="edgeStyle=none;html=1;" parent="1" source="214" target="217" edge="1">
                    <mxGeometry relative="1" as="geometry"/>
                </mxCell>
                <mxCell id="214" value="Init&lt;br&gt;Connect_to_webserver" style="rounded=1;whiteSpace=wrap;html=1;" parent="1" vertex="1">
                    <mxGeometry x="1190" y="3610" width="160" height="40" as="geometry"/>
                </mxCell>
                <mxCell id="215" value="" style="edgeStyle=none;html=1;" parent="1" source="217" target="219" edge="1">
                    <mxGeometry relative="1" as="geometry">
                        <Array as="points">
                            <mxPoint x="1370" y="3710"/>
                        </Array>
                    </mxGeometry>
                </mxCell>
                <mxCell id="217" value="check_data_webserver" style="rounded=1;whiteSpace=wrap;html=1;" parent="1" vertex="1">
                    <mxGeometry x="1190" y="3690" width="160" height="40" as="geometry"/>
                </mxCell>
                <mxCell id="218" value="" style="edgeStyle=none;html=1;" parent="1" source="219" target="222" edge="1">
                    <mxGeometry relative="1" as="geometry"/>
                </mxCell>
                <mxCell id="219" value="get_data_webserver" style="rounded=1;whiteSpace=wrap;html=1;" parent="1" vertex="1">
                    <mxGeometry x="1390" y="3690" width="160" height="40" as="geometry"/>
                </mxCell>
                <mxCell id="221" value="" style="edgeStyle=none;html=1;" parent="1" source="222" edge="1">
                    <mxGeometry relative="1" as="geometry">
                        <mxPoint x="1270" y="3790" as="targetPoint"/>
                    </mxGeometry>
                </mxCell>
                <mxCell id="222" value="set_new_data_esp32" style="rounded=1;whiteSpace=wrap;html=1;" parent="1" vertex="1">
                    <mxGeometry x="1390" y="3770" width="160" height="40" as="geometry"/>
                </mxCell>
                <mxCell id="223" value="" style="endArrow=classic;html=1;exitX=0.5;exitY=1;exitDx=0;exitDy=0;entryX=0;entryY=0.5;entryDx=0;entryDy=0;" parent="1" source="217" target="217" edge="1">
                    <mxGeometry width="50" height="50" relative="1" as="geometry">
                        <mxPoint x="1270" y="3810" as="sourcePoint"/>
                        <mxPoint x="1150" y="3690" as="targetPoint"/>
                        <Array as="points">
                            <mxPoint x="1270" y="3790"/>
                            <mxPoint x="1150" y="3790"/>
                            <mxPoint x="1150" y="3710"/>
                        </Array>
                    </mxGeometry>
                </mxCell>
                <mxCell id="225" value="" style="endArrow=classic;html=1;exitX=0.5;exitY=1;exitDx=0;exitDy=0;" parent="1" source="125" edge="1">
                    <mxGeometry width="50" height="50" relative="1" as="geometry">
                        <mxPoint x="2170" y="1170" as="sourcePoint"/>
                        <mxPoint x="1650" y="1030" as="targetPoint"/>
                        <Array as="points">
                            <mxPoint x="2190" y="1170"/>
                            <mxPoint x="1960" y="1170"/>
                            <mxPoint x="1650" y="1170"/>
                        </Array>
                    </mxGeometry>
                </mxCell>
                <mxCell id="226" value="" style="endArrow=classic;html=1;exitX=0.5;exitY=1;exitDx=0;exitDy=0;" parent="1" source="178" edge="1">
                    <mxGeometry width="50" height="50" relative="1" as="geometry">
                        <mxPoint x="2080" y="3870" as="sourcePoint"/>
                        <mxPoint x="1950" y="3770" as="targetPoint"/>
                        <Array as="points">
                            <mxPoint x="2350" y="3770"/>
                        </Array>
                    </mxGeometry>
                </mxCell>
                <mxCell id="228" value="" style="endArrow=classic;html=1;exitX=0.5;exitY=1;exitDx=0;exitDy=0;" parent="1" source="146" edge="1">
                    <mxGeometry width="50" height="50" relative="1" as="geometry">
                        <mxPoint x="2170" y="2850" as="sourcePoint"/>
                        <mxPoint x="1800" y="2770" as="targetPoint"/>
                        <Array as="points">
                            <mxPoint x="2200" y="2770"/>
                        </Array>
                    </mxGeometry>
                </mxCell>
                <mxCell id="229" value="Beagle Bone" style="rounded=1;whiteSpace=wrap;html=1;" parent="1" vertex="1">
                    <mxGeometry x="390" y="210" width="120" height="80" as="geometry"/>
                </mxCell>
                <mxCell id="239" value="" style="edgeStyle=none;html=1;" parent="1" source="236" edge="1">
                    <mxGeometry relative="1" as="geometry">
                        <mxPoint x="480" y="860" as="targetPoint"/>
                    </mxGeometry>
                </mxCell>
                <mxCell id="236" value="New Connection" style="rounded=1;whiteSpace=wrap;html=1;" parent="1" vertex="1">
                    <mxGeometry x="280" y="840" width="160" height="40" as="geometry"/>
                </mxCell>
                <mxCell id="237" value="Event New Connection" style="text;html=1;align=center;verticalAlign=middle;resizable=0;points=[];autosize=1;strokeColor=none;fillColor=none;" parent="1" vertex="1">
                    <mxGeometry x="280" y="820" width="140" height="20" as="geometry"/>
                </mxCell>
                <mxCell id="443" value="" style="edgeStyle=none;html=1;" edge="1" parent="1" source="240" target="300">
                    <mxGeometry relative="1" as="geometry"/>
                </mxCell>
                <mxCell id="240" value="New Data" style="rounded=1;whiteSpace=wrap;html=1;" parent="1" vertex="1">
                    <mxGeometry x="280" y="960" width="160" height="40" as="geometry"/>
                </mxCell>
                <mxCell id="241" value="Event One Recive Data" style="text;html=1;align=center;verticalAlign=middle;resizable=0;points=[];autosize=1;strokeColor=none;fillColor=none;" parent="1" vertex="1">
                    <mxGeometry x="280" y="930" width="140" height="20" as="geometry"/>
                </mxCell>
                <mxCell id="242" value="Save New Data to DataClass" style="rounded=1;whiteSpace=wrap;html=1;" parent="1" vertex="1">
                    <mxGeometry x="680" y="1160" width="160" height="40" as="geometry"/>
                </mxCell>
                <mxCell id="251" value="" style="edgeStyle=none;html=1;" parent="1" source="246" target="248" edge="1">
                    <mxGeometry relative="1" as="geometry"/>
                </mxCell>
                <mxCell id="246" value="trajectory" style="rounded=1;whiteSpace=wrap;html=1;" parent="1" vertex="1">
                    <mxGeometry x="280" y="1400" width="160" height="40" as="geometry"/>
                </mxCell>
                <mxCell id="247" value="Event Timer Log" style="text;html=1;align=center;verticalAlign=middle;resizable=0;points=[];autosize=1;strokeColor=none;fillColor=none;" parent="1" vertex="1">
                    <mxGeometry x="265" y="1380" width="100" height="20" as="geometry"/>
                </mxCell>
                <mxCell id="252" value="" style="edgeStyle=none;html=1;" parent="1" source="248" target="249" edge="1">
                    <mxGeometry relative="1" as="geometry"/>
                </mxCell>
                <mxCell id="248" value="Open File" style="rounded=1;whiteSpace=wrap;html=1;" parent="1" vertex="1">
                    <mxGeometry x="480" y="1400" width="160" height="40" as="geometry"/>
                </mxCell>
                <mxCell id="253" value="" style="edgeStyle=none;html=1;" parent="1" source="249" target="250" edge="1">
                    <mxGeometry relative="1" as="geometry"/>
                </mxCell>
                <mxCell id="467" value="" style="edgeStyle=none;html=1;entryX=0;entryY=0.5;entryDx=0;entryDy=0;" edge="1" parent="1" source="249" target="465">
                    <mxGeometry relative="1" as="geometry">
                        <mxPoint x="760" y="1520" as="targetPoint"/>
                        <Array as="points">
                            <mxPoint x="760" y="1500"/>
                        </Array>
                    </mxGeometry>
                </mxCell>
                <mxCell id="249" value="Write Data" style="rounded=1;whiteSpace=wrap;html=1;" parent="1" vertex="1">
                    <mxGeometry x="680" y="1400" width="160" height="40" as="geometry"/>
                </mxCell>
                <mxCell id="250" value="Close File" style="rounded=1;whiteSpace=wrap;html=1;" parent="1" vertex="1">
                    <mxGeometry x="880" y="1400" width="160" height="40" as="geometry"/>
                </mxCell>
                <mxCell id="255" value="Event Log" style="rounded=1;whiteSpace=wrap;html=1;" parent="1" vertex="1">
                    <mxGeometry x="480" y="840" width="160" height="40" as="geometry"/>
                </mxCell>
                <mxCell id="283" value="" style="edgeStyle=none;html=1;" parent="1" source="259" target="260" edge="1">
                    <mxGeometry relative="1" as="geometry"/>
                </mxCell>
                <mxCell id="259" value="Load Data from configfile" style="rounded=1;whiteSpace=wrap;html=1;" parent="1" vertex="1">
                    <mxGeometry x="270" y="1810" width="160" height="40" as="geometry"/>
                </mxCell>
                <mxCell id="329" value="" style="edgeStyle=none;html=1;" parent="1" source="260" target="328" edge="1">
                    <mxGeometry relative="1" as="geometry"/>
                </mxCell>
                <mxCell id="260" value="Start Webserver" style="rounded=1;whiteSpace=wrap;html=1;" parent="1" vertex="1">
                    <mxGeometry x="270" y="1890" width="160" height="40" as="geometry"/>
                </mxCell>
                <mxCell id="285" value="" style="edgeStyle=none;html=1;" parent="1" source="261" target="277" edge="1">
                    <mxGeometry relative="1" as="geometry"/>
                </mxCell>
                <mxCell id="261" value="check Sensor Temp" style="rounded=1;whiteSpace=wrap;html=1;" parent="1" vertex="1">
                    <mxGeometry x="790" y="1960" width="160" height="40" as="geometry"/>
                </mxCell>
                <mxCell id="271" value="" style="edgeStyle=none;html=1;" parent="1" source="262" target="265" edge="1">
                    <mxGeometry relative="1" as="geometry"/>
                </mxCell>
                <mxCell id="262" value="check Ultrasound Sensors1" style="rounded=1;whiteSpace=wrap;html=1;" parent="1" vertex="1">
                    <mxGeometry x="790" y="1810" width="160" height="40" as="geometry"/>
                </mxCell>
                <mxCell id="264" value="Thread Sensors" style="ellipse;whiteSpace=wrap;html=1;" parent="1" vertex="1">
                    <mxGeometry x="790" y="1740" width="160" height="50" as="geometry"/>
                </mxCell>
                <mxCell id="290" value="" style="edgeStyle=none;html=1;" parent="1" source="265" target="261" edge="1">
                    <mxGeometry relative="1" as="geometry"/>
                </mxCell>
                <mxCell id="265" value="check Ultrasound Sensors2" style="rounded=1;whiteSpace=wrap;html=1;" parent="1" vertex="1">
                    <mxGeometry x="790" y="1880" width="160" height="40" as="geometry"/>
                </mxCell>
                <mxCell id="270" value="" style="edgeStyle=none;html=1;" parent="1" source="266" target="268" edge="1">
                    <mxGeometry relative="1" as="geometry"/>
                </mxCell>
                <mxCell id="266" value="if significant change" style="rounded=1;whiteSpace=wrap;html=1;" parent="1" vertex="1">
                    <mxGeometry x="790" y="2200" width="160" height="40" as="geometry"/>
                </mxCell>
                <mxCell id="268" value="Event New Data" style="rounded=1;whiteSpace=wrap;html=1;" parent="1" vertex="1">
                    <mxGeometry x="1000" y="2200" width="160" height="40" as="geometry"/>
                </mxCell>
                <mxCell id="273" value="this maybe 3 Time to get the middle" style="text;html=1;align=center;verticalAlign=middle;resizable=0;points=[];autosize=1;strokeColor=none;fillColor=none;" parent="1" vertex="1">
                    <mxGeometry x="980" y="1860" width="200" height="20" as="geometry"/>
                </mxCell>
                <mxCell id="274" value="couse otherwise we would send to much events" style="text;html=1;align=center;verticalAlign=middle;resizable=0;points=[];autosize=1;strokeColor=none;fillColor=none;" parent="1" vertex="1">
                    <mxGeometry x="850" y="2300" width="270" height="20" as="geometry"/>
                </mxCell>
                <mxCell id="275" value="Findout how often Ultrassound Sensor needs to be checked" style="text;html=1;strokeColor=none;fillColor=none;align=center;verticalAlign=middle;whiteSpace=wrap;rounded=0;" parent="1" vertex="1">
                    <mxGeometry x="980" y="1800" width="180" height="30" as="geometry"/>
                </mxCell>
                <mxCell id="288" value="" style="edgeStyle=none;html=1;" parent="1" source="277" target="279" edge="1">
                    <mxGeometry relative="1" as="geometry"/>
                </mxCell>
                <mxCell id="277" value="check Batterie" style="rounded=1;whiteSpace=wrap;html=1;" parent="1" vertex="1">
                    <mxGeometry x="790" y="2040" width="160" height="40" as="geometry"/>
                </mxCell>
                <mxCell id="289" value="" style="edgeStyle=none;html=1;" parent="1" source="279" target="266" edge="1">
                    <mxGeometry relative="1" as="geometry"/>
                </mxCell>
                <mxCell id="279" value="check sensor Pos 0" style="rounded=1;whiteSpace=wrap;html=1;" parent="1" vertex="1">
                    <mxGeometry x="790" y="2120" width="160" height="40" as="geometry"/>
                </mxCell>
                <mxCell id="280" value="Main Thread" style="ellipse;whiteSpace=wrap;html=1;" parent="1" vertex="1">
                    <mxGeometry x="270" y="1740" width="160" height="50" as="geometry"/>
                </mxCell>
                <mxCell id="287" value="" style="endArrow=classic;html=1;exitX=0.5;exitY=1;exitDx=0;exitDy=0;entryX=0;entryY=0.5;entryDx=0;entryDy=0;" parent="1" source="266" target="262" edge="1">
                    <mxGeometry width="50" height="50" relative="1" as="geometry">
                        <mxPoint x="890" y="2130" as="sourcePoint"/>
                        <mxPoint x="790" y="1830" as="targetPoint"/>
                        <Array as="points">
                            <mxPoint x="870" y="2270"/>
                            <mxPoint x="750" y="2270"/>
                            <mxPoint x="750" y="2050"/>
                            <mxPoint x="750" y="1830"/>
                        </Array>
                    </mxGeometry>
                </mxCell>
                <mxCell id="291" value="&lt;font style=&quot;font-size: 20px&quot;&gt;&lt;b&gt;ESP32 - Cam - platform&lt;br&gt;&lt;/b&gt;&lt;/font&gt;" style="text;html=1;align=center;verticalAlign=middle;resizable=0;points=[];autosize=1;strokeColor=none;fillColor=none;" parent="1" vertex="1">
                    <mxGeometry x="1120" y="3400" width="240" height="20" as="geometry"/>
                </mxCell>
                <mxCell id="292" value="&lt;font style=&quot;font-size: 20px&quot;&gt;&lt;b&gt;GUI&lt;br&gt;&lt;/b&gt;&lt;/font&gt;" style="text;html=1;align=center;verticalAlign=middle;resizable=0;points=[];autosize=1;strokeColor=none;fillColor=none;" parent="1" vertex="1">
                    <mxGeometry x="1250" y="2470" width="50" height="20" as="geometry"/>
                </mxCell>
                <mxCell id="293" value="&lt;font style=&quot;font-size: 20px&quot;&gt;&lt;b&gt;Beagle Bone Black&lt;br&gt;&lt;/b&gt;&lt;/font&gt;" style="text;html=1;align=center;verticalAlign=middle;resizable=0;points=[];autosize=1;strokeColor=none;fillColor=none;" parent="1" vertex="1">
                    <mxGeometry x="1100" y="710" width="200" height="20" as="geometry"/>
                </mxCell>
                <mxCell id="447" value="" style="edgeStyle=none;html=1;" edge="1" parent="1" source="300" target="446">
                    <mxGeometry relative="1" as="geometry"/>
                </mxCell>
                <mxCell id="300" value="check New Data to which Modul" style="rounded=1;whiteSpace=wrap;html=1;" parent="1" vertex="1">
                    <mxGeometry x="480" y="960" width="160" height="40" as="geometry"/>
                </mxCell>
                <mxCell id="320" value="Event Timer Controll" style="text;html=1;align=center;verticalAlign=middle;resizable=0;points=[];autosize=1;strokeColor=none;fillColor=none;" parent="1" vertex="1">
                    <mxGeometry x="265" y="1220" width="120" height="20" as="geometry"/>
                </mxCell>
                <mxCell id="321" value="" style="edgeStyle=none;html=1;" parent="1" source="322" edge="1">
                    <mxGeometry relative="1" as="geometry">
                        <mxPoint x="480" y="1260" as="targetPoint"/>
                    </mxGeometry>
                </mxCell>
                <mxCell id="322" value="Data and Actor" style="rounded=1;whiteSpace=wrap;html=1;" parent="1" vertex="1">
                    <mxGeometry x="280" y="1240" width="160" height="40" as="geometry"/>
                </mxCell>
                <mxCell id="323" value="talk with Actor" style="rounded=1;whiteSpace=wrap;html=1;" parent="1" vertex="1">
                    <mxGeometry x="480" y="1240" width="160" height="40" as="geometry"/>
                </mxCell>
                <mxCell id="339" value="" style="edgeStyle=none;html=1;" parent="1" source="328" target="338" edge="1">
                    <mxGeometry relative="1" as="geometry"/>
                </mxCell>
                <mxCell id="328" value="Start Thread Sensors" style="rounded=1;whiteSpace=wrap;html=1;" parent="1" vertex="1">
                    <mxGeometry x="270" y="1970" width="160" height="40" as="geometry"/>
                </mxCell>
                <mxCell id="332" value="" style="edgeStyle=none;html=1;" parent="1" source="333" target="335" edge="1">
                    <mxGeometry relative="1" as="geometry"/>
                </mxCell>
                <mxCell id="333" value="Check Data" style="rounded=1;whiteSpace=wrap;html=1;" parent="1" vertex="1">
                    <mxGeometry x="510" y="1810" width="160" height="40" as="geometry"/>
                </mxCell>
                <mxCell id="335" value="Write Changed Data to Write Actors bzw. Calculate Data for Actor" style="rounded=1;whiteSpace=wrap;html=1;" parent="1" vertex="1">
                    <mxGeometry x="510" y="1890" width="160" height="80" as="geometry"/>
                </mxCell>
                <mxCell id="336" value="Thread Actoren" style="ellipse;whiteSpace=wrap;html=1;" parent="1" vertex="1">
                    <mxGeometry x="510" y="1740" width="160" height="50" as="geometry"/>
                </mxCell>
                <mxCell id="373" value="" style="edgeStyle=none;html=1;" parent="1" source="338" target="372" edge="1">
                    <mxGeometry relative="1" as="geometry"/>
                </mxCell>
                <mxCell id="338" value="start Thread Controll?" style="rounded=1;whiteSpace=wrap;html=1;" parent="1" vertex="1">
                    <mxGeometry x="270" y="2050" width="160" height="40" as="geometry"/>
                </mxCell>
                <mxCell id="340" value="" style="edgeStyle=none;html=1;" parent="1" source="341" target="343" edge="1">
                    <mxGeometry relative="1" as="geometry"/>
                </mxCell>
                <mxCell id="341" value="Event Connection BBB" style="rounded=1;whiteSpace=wrap;html=1;" parent="1" vertex="1">
                    <mxGeometry x="270" y="2990" width="160" height="40" as="geometry"/>
                </mxCell>
                <mxCell id="342" value="" style="edgeStyle=none;html=1;" parent="1" source="343" target="381" edge="1">
                    <mxGeometry relative="1" as="geometry">
                        <mxPoint x="350" y="3150" as="targetPoint"/>
                    </mxGeometry>
                </mxCell>
                <mxCell id="343" value="Event Connection ESP32" style="rounded=1;whiteSpace=wrap;html=1;" parent="1" vertex="1">
                    <mxGeometry x="270" y="3060" width="160" height="40" as="geometry"/>
                </mxCell>
                <mxCell id="344" value="Main Thread" style="ellipse;whiteSpace=wrap;html=1;" parent="1" vertex="1">
                    <mxGeometry x="270" y="2920" width="160" height="50" as="geometry"/>
                </mxCell>
                <mxCell id="351" value="Event Connection BBB" style="text;html=1;align=center;verticalAlign=middle;resizable=0;points=[];autosize=1;strokeColor=none;fillColor=none;" parent="1" vertex="1">
                    <mxGeometry x="270" y="2550" width="140" height="20" as="geometry"/>
                </mxCell>
                <mxCell id="368" value="" style="edgeStyle=none;html=1;" parent="1" source="353" target="367" edge="1">
                    <mxGeometry relative="1" as="geometry"/>
                </mxCell>
                <mxCell id="353" value="Connect to Webhost Master" style="rounded=1;whiteSpace=wrap;html=1;" parent="1" vertex="1">
                    <mxGeometry x="270" y="2570" width="160" height="40" as="geometry"/>
                </mxCell>
                <mxCell id="357" value="" style="edgeStyle=none;html=1;" parent="1" source="355" edge="1">
                    <mxGeometry relative="1" as="geometry">
                        <mxPoint x="470" y="2770" as="targetPoint"/>
                    </mxGeometry>
                </mxCell>
                <mxCell id="355" value="New Data Input" style="rounded=1;whiteSpace=wrap;html=1;" parent="1" vertex="1">
                    <mxGeometry x="270" y="2750" width="160" height="40" as="geometry"/>
                </mxCell>
                <mxCell id="358" value="Event New Data Input" style="text;html=1;align=center;verticalAlign=middle;resizable=0;points=[];autosize=1;strokeColor=none;fillColor=none;" parent="1" vertex="1">
                    <mxGeometry x="260" y="2730" width="130" height="20" as="geometry"/>
                </mxCell>
                <mxCell id="359" value="write to GUI" style="rounded=1;whiteSpace=wrap;html=1;" parent="1" vertex="1">
                    <mxGeometry x="470" y="2750" width="160" height="40" as="geometry"/>
                </mxCell>
                <mxCell id="361" value="" style="edgeStyle=none;html=1;" parent="1" source="362" target="364" edge="1">
                    <mxGeometry relative="1" as="geometry"/>
                </mxCell>
                <mxCell id="362" value="New Data Output" style="rounded=1;whiteSpace=wrap;html=1;" parent="1" vertex="1">
                    <mxGeometry x="270" y="2840" width="160" height="40" as="geometry"/>
                </mxCell>
                <mxCell id="363" value="" style="edgeStyle=none;html=1;" parent="1" source="364" target="366" edge="1">
                    <mxGeometry relative="1" as="geometry"/>
                </mxCell>
                <mxCell id="364" value="make MSG" style="rounded=1;whiteSpace=wrap;html=1;" parent="1" vertex="1">
                    <mxGeometry x="470" y="2840" width="160" height="40" as="geometry"/>
                </mxCell>
                <mxCell id="365" value="Event New Data Output" style="text;html=1;align=center;verticalAlign=middle;resizable=0;points=[];autosize=1;strokeColor=none;fillColor=none;" parent="1" vertex="1">
                    <mxGeometry x="270" y="2820" width="140" height="20" as="geometry"/>
                </mxCell>
                <mxCell id="366" value="Send to Master" style="rounded=1;whiteSpace=wrap;html=1;" parent="1" vertex="1">
                    <mxGeometry x="670" y="2840" width="160" height="40" as="geometry"/>
                </mxCell>
                <mxCell id="370" value="" style="edgeStyle=none;html=1;" parent="1" source="367" edge="1">
                    <mxGeometry relative="1" as="geometry">
                        <mxPoint x="670" y="2590" as="targetPoint"/>
                    </mxGeometry>
                </mxCell>
                <mxCell id="367" value="Recive Start Data" style="rounded=1;whiteSpace=wrap;html=1;" parent="1" vertex="1">
                    <mxGeometry x="470" y="2570" width="160" height="40" as="geometry"/>
                </mxCell>
                <mxCell id="371" value="Event New Data Input" style="rounded=1;whiteSpace=wrap;html=1;" parent="1" vertex="1">
                    <mxGeometry x="670" y="2570" width="160" height="40" as="geometry"/>
                </mxCell>
                <mxCell id="372" value="wait for Events?" style="rounded=1;whiteSpace=wrap;html=1;" parent="1" vertex="1">
                    <mxGeometry x="270" y="2130" width="160" height="40" as="geometry"/>
                </mxCell>
                <mxCell id="374" value="" style="endArrow=classic;html=1;entryX=0;entryY=0.5;entryDx=0;entryDy=0;exitX=0.5;exitY=1;exitDx=0;exitDy=0;" parent="1" source="372" target="372" edge="1">
                    <mxGeometry width="50" height="50" relative="1" as="geometry">
                        <mxPoint x="250" y="2300" as="sourcePoint"/>
                        <mxPoint x="300" y="2250" as="targetPoint"/>
                        <Array as="points">
                            <mxPoint x="350" y="2210"/>
                            <mxPoint x="230" y="2210"/>
                            <mxPoint x="230" y="2150"/>
                        </Array>
                    </mxGeometry>
                </mxCell>
                <mxCell id="376" value="" style="endArrow=classic;html=1;entryX=0;entryY=0.5;entryDx=0;entryDy=0;exitX=0.5;exitY=1;exitDx=0;exitDy=0;" parent="1" edge="1">
                    <mxGeometry width="50" height="50" relative="1" as="geometry">
                        <mxPoint x="350" y="3250" as="sourcePoint"/>
                        <mxPoint x="270" y="3230" as="targetPoint"/>
                        <Array as="points">
                            <mxPoint x="350" y="3290"/>
                            <mxPoint x="230" y="3290"/>
                            <mxPoint x="230" y="3230"/>
                        </Array>
                    </mxGeometry>
                </mxCell>
                <mxCell id="377" value="" style="edgeStyle=none;html=1;" parent="1" source="378" edge="1">
                    <mxGeometry relative="1" as="geometry">
                        <mxPoint x="470" y="2670" as="targetPoint"/>
                    </mxGeometry>
                </mxCell>
                <mxCell id="378" value="New Data Input" style="rounded=1;whiteSpace=wrap;html=1;" parent="1" vertex="1">
                    <mxGeometry x="270" y="2650" width="160" height="40" as="geometry"/>
                </mxCell>
                <mxCell id="379" value="Event Connection ESP32" style="text;html=1;align=center;verticalAlign=middle;resizable=0;points=[];autosize=1;strokeColor=none;fillColor=none;" parent="1" vertex="1">
                    <mxGeometry x="250" y="2630" width="150" height="20" as="geometry"/>
                </mxCell>
                <mxCell id="380" value="write to GUI" style="rounded=1;whiteSpace=wrap;html=1;" parent="1" vertex="1">
                    <mxGeometry x="470" y="2650" width="160" height="40" as="geometry"/>
                </mxCell>
                <mxCell id="383" value="" style="edgeStyle=none;html=1;" parent="1" source="381" target="382" edge="1">
                    <mxGeometry relative="1" as="geometry"/>
                </mxCell>
                <mxCell id="381" value="Start GUI" style="rounded=1;whiteSpace=wrap;html=1;" parent="1" vertex="1">
                    <mxGeometry x="270" y="3130" width="160" height="40" as="geometry"/>
                </mxCell>
                <mxCell id="382" value="Wait for User Input" style="rounded=1;whiteSpace=wrap;html=1;" parent="1" vertex="1">
                    <mxGeometry x="270" y="3210" width="160" height="40" as="geometry"/>
                </mxCell>
                <mxCell id="384" value="Event Connection" style="text;html=1;align=center;verticalAlign=middle;resizable=0;points=[];autosize=1;strokeColor=none;fillColor=none;" parent="1" vertex="1">
                    <mxGeometry x="205" y="3430" width="110" height="20" as="geometry"/>
                </mxCell>
                <mxCell id="385" value="" style="edgeStyle=none;html=1;" parent="1" source="386" target="388" edge="1">
                    <mxGeometry relative="1" as="geometry"/>
                </mxCell>
                <mxCell id="386" value="Connect to Webhost Master" style="rounded=1;whiteSpace=wrap;html=1;" parent="1" vertex="1">
                    <mxGeometry x="190" y="3450" width="160" height="40" as="geometry"/>
                </mxCell>
                <mxCell id="387" value="" style="edgeStyle=none;html=1;" parent="1" source="388" edge="1">
                    <mxGeometry relative="1" as="geometry">
                        <mxPoint x="590" y="3470" as="targetPoint"/>
                    </mxGeometry>
                </mxCell>
                <mxCell id="388" value="Recive Start Data" style="rounded=1;whiteSpace=wrap;html=1;" parent="1" vertex="1">
                    <mxGeometry x="390" y="3450" width="160" height="40" as="geometry"/>
                </mxCell>
                <mxCell id="389" value="Event New Data Input" style="rounded=1;whiteSpace=wrap;html=1;" parent="1" vertex="1">
                    <mxGeometry x="590" y="3450" width="160" height="40" as="geometry"/>
                </mxCell>
                <mxCell id="394" value="" style="edgeStyle=none;html=1;" parent="1" source="395" edge="1">
                    <mxGeometry relative="1" as="geometry">
                        <mxPoint x="390" y="3550" as="targetPoint"/>
                    </mxGeometry>
                </mxCell>
                <mxCell id="395" value="New Data Input" style="rounded=1;whiteSpace=wrap;html=1;" parent="1" vertex="1">
                    <mxGeometry x="190" y="3530" width="160" height="40" as="geometry"/>
                </mxCell>
                <mxCell id="396" value="Event New Data Input" style="text;html=1;align=center;verticalAlign=middle;resizable=0;points=[];autosize=1;strokeColor=none;fillColor=none;" parent="1" vertex="1">
                    <mxGeometry x="190" y="3510" width="130" height="20" as="geometry"/>
                </mxCell>
                <mxCell id="397" value="write to Outputs" style="rounded=1;whiteSpace=wrap;html=1;" parent="1" vertex="1">
                    <mxGeometry x="390" y="3530" width="160" height="40" as="geometry"/>
                </mxCell>
                <mxCell id="402" value="" style="edgeStyle=none;html=1;" parent="1" source="403" target="405" edge="1">
                    <mxGeometry relative="1" as="geometry"/>
                </mxCell>
                <mxCell id="403" value="Event Connection BBB" style="rounded=1;whiteSpace=wrap;html=1;" parent="1" vertex="1">
                    <mxGeometry x="200" y="3690" width="160" height="40" as="geometry"/>
                </mxCell>
                <mxCell id="404" value="" style="edgeStyle=none;html=1;" parent="1" source="405" edge="1">
                    <mxGeometry relative="1" as="geometry">
                        <mxPoint x="280" y="3830" as="targetPoint"/>
                    </mxGeometry>
                </mxCell>
                <mxCell id="405" value="Start Thread Cam" style="rounded=1;whiteSpace=wrap;html=1;" parent="1" vertex="1">
                    <mxGeometry x="200" y="3760" width="160" height="40" as="geometry"/>
                </mxCell>
                <mxCell id="406" value="Main Thread" style="ellipse;whiteSpace=wrap;html=1;" parent="1" vertex="1">
                    <mxGeometry x="200" y="3620" width="160" height="50" as="geometry"/>
                </mxCell>
                <mxCell id="407" value="" style="endArrow=classic;html=1;entryX=0;entryY=0.5;entryDx=0;entryDy=0;exitX=0.5;exitY=1;exitDx=0;exitDy=0;" parent="1" edge="1">
                    <mxGeometry width="50" height="50" relative="1" as="geometry">
                        <mxPoint x="280" y="3870" as="sourcePoint"/>
                        <mxPoint x="200" y="3850" as="targetPoint"/>
                        <Array as="points">
                            <mxPoint x="280" y="3910"/>
                            <mxPoint x="160" y="3910"/>
                            <mxPoint x="160" y="3850"/>
                        </Array>
                    </mxGeometry>
                </mxCell>
                <mxCell id="410" value="wait for new Data Event" style="rounded=1;whiteSpace=wrap;html=1;" parent="1" vertex="1">
                    <mxGeometry x="200" y="3830" width="160" height="40" as="geometry"/>
                </mxCell>
                <mxCell id="421" value="" style="edgeStyle=none;html=1;" parent="1" source="422" target="424" edge="1">
                    <mxGeometry relative="1" as="geometry"/>
                </mxCell>
                <mxCell id="422" value="Make Webhost" style="rounded=1;whiteSpace=wrap;html=1;" parent="1" vertex="1">
                    <mxGeometry x="400" y="3690" width="160" height="40" as="geometry"/>
                </mxCell>
                <mxCell id="424" value="Stream Video with Webhost" style="rounded=1;whiteSpace=wrap;html=1;" parent="1" vertex="1">
                    <mxGeometry x="400" y="3760" width="160" height="40" as="geometry"/>
                </mxCell>
                <mxCell id="425" value="Thread Cam" style="ellipse;whiteSpace=wrap;html=1;" parent="1" vertex="1">
                    <mxGeometry x="400" y="3620" width="160" height="50" as="geometry"/>
                </mxCell>
                <mxCell id="430" value="Hier Webhost ist besser&lt;br&gt;dauerhafte Verbindung ist besser&lt;br&gt;Kein handshake Nötig&lt;br&gt;einfaches Senden von neuen Daten&lt;br&gt;vlt auch schneller&amp;nbsp;&lt;br&gt;und einer für MSG erstellen und Senden" style="text;html=1;align=center;verticalAlign=middle;resizable=0;points=[];autosize=1;strokeColor=none;fillColor=none;" parent="1" vertex="1">
                    <mxGeometry x="980" y="230" width="230" height="90" as="geometry"/>
                </mxCell>
                <mxCell id="432" value="Send Data Motor" style="rounded=1;whiteSpace=wrap;html=1;" parent="1" vertex="1">
                    <mxGeometry x="880" y="960" width="160" height="40" as="geometry"/>
                </mxCell>
                <mxCell id="433" value="Send Data FPGA" style="rounded=1;whiteSpace=wrap;html=1;" parent="1" vertex="1">
                    <mxGeometry x="880" y="1040" width="160" height="40" as="geometry"/>
                </mxCell>
                <mxCell id="437" value="" style="endArrow=classic;html=1;exitX=1;exitY=0.5;exitDx=0;exitDy=0;entryX=0;entryY=0.5;entryDx=0;entryDy=0;" parent="1" source="446" target="432" edge="1">
                    <mxGeometry width="50" height="50" relative="1" as="geometry">
                        <mxPoint x="835" y="980" as="sourcePoint"/>
                        <mxPoint x="875" y="1050" as="targetPoint"/>
                    </mxGeometry>
                </mxCell>
                <mxCell id="438" value="" style="endArrow=classic;html=1;entryX=0;entryY=0.5;entryDx=0;entryDy=0;" parent="1" target="433" edge="1" source="446">
                    <mxGeometry width="50" height="50" relative="1" as="geometry">
                        <mxPoint x="855" y="980" as="sourcePoint"/>
                        <mxPoint x="885" y="990" as="targetPoint"/>
                        <Array as="points">
                            <mxPoint x="760" y="1060"/>
                        </Array>
                    </mxGeometry>
                </mxCell>
                <mxCell id="445" value="" style="edgeStyle=none;html=1;entryX=0;entryY=0.5;entryDx=0;entryDy=0;exitX=0.5;exitY=1;exitDx=0;exitDy=0;" edge="1" parent="1" source="300" target="242">
                    <mxGeometry relative="1" as="geometry">
                        <Array as="points">
                            <mxPoint x="560" y="1180"/>
                        </Array>
                        <mxPoint x="565" y="1010" as="sourcePoint"/>
                        <mxPoint x="685" y="1070" as="targetPoint"/>
                    </mxGeometry>
                </mxCell>
                <mxCell id="446" value="Send Data Trajectory" style="rounded=1;whiteSpace=wrap;html=1;" vertex="1" parent="1">
                    <mxGeometry x="680" y="960" width="160" height="40" as="geometry"/>
                </mxCell>
                <mxCell id="448" value="" style="edgeStyle=none;html=1;" edge="1" parent="1" source="449" target="451">
                    <mxGeometry relative="1" as="geometry"/>
                </mxCell>
                <mxCell id="449" value="Read Data from DataClass" style="rounded=1;whiteSpace=wrap;html=1;" vertex="1" parent="1">
                    <mxGeometry x="280" y="1560" width="160" height="40" as="geometry"/>
                </mxCell>
                <mxCell id="450" value="" style="edgeStyle=none;html=1;" edge="1" parent="1" source="451" target="453">
                    <mxGeometry relative="1" as="geometry"/>
                </mxCell>
                <mxCell id="451" value="Make xml" style="rounded=1;whiteSpace=wrap;html=1;" vertex="1" parent="1">
                    <mxGeometry x="480" y="1560" width="160" height="40" as="geometry"/>
                </mxCell>
                <mxCell id="453" value="Broadcast" style="rounded=1;whiteSpace=wrap;html=1;" vertex="1" parent="1">
                    <mxGeometry x="680" y="1560" width="160" height="40" as="geometry"/>
                </mxCell>
                <mxCell id="455" value="Event Timer Config" style="text;html=1;align=center;verticalAlign=middle;resizable=0;points=[];autosize=1;strokeColor=none;fillColor=none;" vertex="1" parent="1">
                    <mxGeometry x="270" y="1540" width="120" height="20" as="geometry"/>
                </mxCell>
                <mxCell id="456" value="Event Timer Sensor" style="text;html=1;align=center;verticalAlign=middle;resizable=0;points=[];autosize=1;strokeColor=none;fillColor=none;" vertex="1" parent="1">
                    <mxGeometry x="280" y="1300" width="120" height="20" as="geometry"/>
                </mxCell>
                <mxCell id="461" value="" style="edgeStyle=none;html=1;" edge="1" parent="1" source="458" target="459">
                    <mxGeometry relative="1" as="geometry"/>
                </mxCell>
                <mxCell id="458" value="Data" style="rounded=1;whiteSpace=wrap;html=1;" vertex="1" parent="1">
                    <mxGeometry x="280" y="1320" width="160" height="40" as="geometry"/>
                </mxCell>
                <mxCell id="459" value="talk with Sensors" style="rounded=1;whiteSpace=wrap;html=1;" vertex="1" parent="1">
                    <mxGeometry x="480" y="1320" width="160" height="40" as="geometry"/>
                </mxCell>
                <mxCell id="465" value="Broadcast" style="rounded=1;whiteSpace=wrap;html=1;" vertex="1" parent="1">
                    <mxGeometry x="880" y="1480" width="160" height="40" as="geometry"/>
                </mxCell>
            </root>
        </mxGraphModel>
    </diagram>
</mxfile>